<svg width="100" height="84" viewBox="0 0 100 84" fill="none" xmlns="http://www.w3.org/2000/svg">
<path d="M2.5 20C2.5 31.0457 11.4543 40 22.5 40C33.5457 40 42.5 31.0457 42.5 20C42.5 8.9543 33.5457 0 22.5 0C11.4543 0 2.5 8.9543 2.5 20ZM0 90V67.5C0 55.0735 10.0736 45 22.5 45C34.9264 45 45 55.0735 45 67.5V90H0ZM77.5 40C66.4545 40 57.5 31.0457 57.5 20C57.5 8.9543 66.4545 0 77.5 0C88.5455 0 97.5 8.9543 97.5 20C97.5 31.0457 88.5455 40 77.5 40ZM55 90V67.5C55 55.0735 65.0735 45 77.5 45C89.9265 45 100 55.0735 100 67.5V90H55Z" fill="#3B82F6"/>
</svg>
