<svg width="1749" height="319" viewBox="0 0 1749 319" fill="none" xmlns="http://www.w3.org/2000/svg">
<g opacity="0.4">
<path d="M1290.68 177.445L1290.85 179.437C1438.52 168.023 1549.12 144.807 1622.83 124.432C1659.68 114.244 1687.3 104.767 1705.73 97.831C1714.95 94.363 1721.86 91.5303 1726.47 89.5616C1728.78 88.5773 1730.52 87.809 1731.68 87.2853C1732.26 87.0235 1732.69 86.8228 1732.99 86.6868C1733.13 86.6189 1733.24 86.5671 1733.32 86.5319C1733.35 86.5143 1733.38 86.5009 1733.4 86.4917C1733.41 86.4871 1733.42 86.4836 1733.42 86.4811C1733.43 86.4798 1733.43 86.4787 1733.43 86.4781C1733.43 86.4773 1733.43 86.4768 1732.56 84.6716C1731.68 82.8664 1731.68 82.8664 1731.68 82.8666C1731.68 82.8671 1731.68 82.8676 1731.68 82.8685C1731.67 82.8702 1731.67 82.8731 1731.66 82.8769C1731.64 82.8847 1731.62 82.8967 1731.58 82.9128C1731.52 82.9451 1731.41 82.994 1731.27 83.0591C1730.99 83.1893 1730.57 83.3843 1730 83.6405C1728.86 84.1528 1727.16 84.91 1724.87 85.8833C1720.31 87.83 1713.45 90.6414 1704.29 94.089C1685.97 100.984 1658.46 110.424 1621.72 120.579C1548.26 140.888 1437.91 164.058 1290.5 175.452L1290.68 177.445ZM52.0987 200.231C52.8367 202.096 52.8372 202.096 52.8385 202.095C52.8399 202.095 52.842 202.094 52.8449 202.093C52.8507 202.091 52.8595 202.087 52.8714 202.083C52.8952 202.074 52.9312 202.06 52.9792 202.041C53.0753 202.004 53.2198 201.949 53.4119 201.876C53.7961 201.729 54.3708 201.51 55.1305 201.224C56.6499 200.652 58.9091 199.808 61.863 198.726C67.7707 196.563 76.4572 193.446 87.562 189.636C109.772 182.015 141.654 171.624 180.325 160.546C257.678 138.387 362.151 113.491 470.705 102.51L470.485 100.521L470.265 98.5326C361.392 109.546 256.672 134.506 179.188 156.703C140.441 167.803 108.494 178.215 86.2296 185.854C75.0973 189.673 66.3852 192.8 60.4537 194.972C57.4879 196.058 55.2172 196.906 53.6868 197.483C52.9215 197.771 52.3413 197.991 51.9517 198.14C51.757 198.215 51.6099 198.271 51.5111 198.309C51.4618 198.328 51.4245 198.342 51.3994 198.352C51.3868 198.357 51.3773 198.36 51.3709 198.363C51.3677 198.364 51.3651 198.365 51.3635 198.366C51.3617 198.366 51.3607 198.367 52.0987 200.231ZM470.485 100.521L470.705 102.51C579.076 91.5465 710.024 116.403 851.129 141.256C992.092 166.083 1143.02 190.863 1290.85 179.437L1290.68 177.445L1290.5 175.452C1143.25 186.834 992.794 162.154 851.789 137.319C710.926 112.509 579.321 87.5002 470.265 98.5326L470.485 100.521Z" fill="#3B82F6"/>
<path d="M1290.68 168.445L1290.85 170.437C1438.52 159.023 1549.12 135.807 1622.83 115.432C1659.68 105.244 1687.3 95.7671 1705.73 88.831C1714.95 85.363 1721.86 82.5303 1726.47 80.5616C1728.78 79.5773 1730.52 78.809 1731.68 78.2853C1732.26 78.0235 1732.69 77.8228 1732.99 77.6868C1733.13 77.6189 1733.24 77.5671 1733.32 77.5319C1733.35 77.5143 1733.38 77.5009 1733.4 77.4917C1733.41 77.4871 1733.42 77.4836 1733.42 77.4811C1733.43 77.4798 1733.43 77.4787 1733.43 77.4781C1733.43 77.4773 1733.43 77.4768 1732.56 75.6716C1731.68 73.8664 1731.68 73.8664 1731.68 73.8666C1731.68 73.8671 1731.68 73.8676 1731.68 73.8685C1731.67 73.8702 1731.67 73.8731 1731.66 73.8769C1731.64 73.8847 1731.62 73.8967 1731.58 73.9128C1731.52 73.9451 1731.41 73.994 1731.27 74.0591C1730.99 74.1893 1730.57 74.3843 1730 74.6405C1728.86 75.1528 1727.16 75.91 1724.87 76.8833C1720.31 78.83 1713.45 81.6414 1704.29 85.089C1685.97 91.9842 1658.46 101.424 1621.72 111.579C1548.26 131.888 1437.91 155.058 1290.5 166.452L1290.68 168.445ZM52.0987 191.231C52.8367 193.096 52.8372 193.096 52.8385 193.095C52.8399 193.095 52.842 193.094 52.8449 193.093C52.8507 193.091 52.8595 193.087 52.8714 193.083C52.8952 193.074 52.9312 193.06 52.9792 193.041C53.0753 193.004 53.2198 192.949 53.4119 192.876C53.7961 192.729 54.3708 192.51 55.1305 192.224C56.6499 191.652 58.9091 190.808 61.863 189.726C67.7707 187.563 76.4572 184.446 87.562 180.636C109.772 173.015 141.654 162.624 180.325 151.546C257.678 129.387 362.151 104.491 470.705 93.5095L470.485 91.5211L470.265 89.5326C361.392 100.546 256.672 125.506 179.188 147.703C140.441 158.803 108.494 169.215 86.2296 176.854C75.0973 180.673 66.3852 183.8 60.4537 185.972C57.4879 187.058 55.2172 187.906 53.6868 188.483C52.9215 188.771 52.3413 188.991 51.9517 189.14C51.757 189.215 51.6099 189.271 51.5111 189.309C51.4618 189.328 51.4245 189.342 51.3994 189.352C51.3868 189.357 51.3773 189.36 51.3709 189.363C51.3677 189.364 51.3651 189.365 51.3635 189.366C51.3617 189.366 51.3607 189.367 52.0987 191.231ZM470.485 91.5211L470.705 93.5095C579.076 82.5465 710.024 107.403 851.129 132.256C992.092 157.083 1143.02 181.863 1290.85 170.437L1290.68 168.445L1290.5 166.452C1143.25 177.834 992.794 153.154 851.789 128.319C710.926 103.509 579.321 78.5002 470.265 89.5326L470.485 91.5211Z" fill="#3B82F6"/>
<path d="M1278.69 191.454L1278.86 193.447C1426.54 182.033 1537.13 158.816 1610.84 138.441C1647.69 128.253 1675.32 118.776 1693.75 111.84C1702.96 108.372 1709.87 105.54 1714.49 103.571C1716.8 102.587 1718.53 101.818 1719.69 101.295C1720.27 101.033 1720.71 100.832 1721 100.696C1721.15 100.628 1721.26 100.576 1721.33 100.541C1721.37 100.524 1721.4 100.51 1721.42 100.501C1721.43 100.496 1721.43 100.493 1721.44 100.49C1721.44 100.489 1721.44 100.488 1721.44 100.487C1721.45 100.487 1721.45 100.486 1720.57 98.6808C1719.7 96.8756 1719.7 96.8756 1719.7 96.8759C1719.69 96.8763 1719.69 96.8769 1719.69 96.8777C1719.69 96.8795 1719.68 96.8823 1719.67 96.8862C1719.66 96.894 1719.63 96.906 1719.6 96.9221C1719.53 96.9544 1719.42 97.0033 1719.28 97.0684C1719 97.1986 1718.58 97.3936 1718.01 97.6497C1716.88 98.1621 1715.17 98.9192 1712.89 99.8926C1708.32 101.839 1701.46 104.651 1692.3 108.098C1673.98 114.994 1646.47 124.433 1609.74 134.588C1536.27 154.897 1425.93 178.068 1278.52 189.461L1278.69 191.454ZM40.1124 214.241C40.8503 216.105 40.8509 216.105 40.8521 216.105C40.8536 216.104 40.8556 216.103 40.8585 216.102C40.8643 216.1 40.8732 216.097 40.8851 216.092C40.9089 216.083 40.9448 216.069 40.9929 216.051C41.089 216.014 41.2334 215.958 41.4255 215.885C41.8097 215.738 42.3845 215.52 43.1442 215.233C44.6636 214.661 46.9228 213.817 49.8766 212.736C55.7844 210.572 64.4708 207.455 75.5757 203.645C97.7858 196.025 129.667 185.634 168.339 174.555C245.691 152.396 350.164 127.5 458.719 116.519L458.498 114.53L458.278 112.542C349.405 123.556 244.685 148.515 167.202 170.712C128.455 181.812 96.5076 192.225 74.2433 199.863C63.111 203.683 54.3988 206.809 48.4673 208.981C45.5016 210.067 43.2309 210.915 41.7004 211.492C40.9352 211.78 40.355 212.001 39.9654 212.15C39.7706 212.224 39.6235 212.28 39.5248 212.318C39.4754 212.337 39.4382 212.352 39.4131 212.361C39.4005 212.366 39.391 212.37 39.3846 212.372C39.3813 212.373 39.3788 212.374 39.3772 212.375C39.3754 212.376 39.3744 212.376 40.1124 214.241ZM458.498 114.53L458.719 116.519C567.089 105.556 698.037 130.412 839.143 155.265C980.106 180.092 1131.03 204.873 1278.86 193.447L1278.69 191.454L1278.52 189.461C1131.26 200.843 980.808 176.164 839.802 151.329C698.94 126.519 567.335 101.509 458.278 112.542L458.498 114.53Z" fill="#3B82F6"/>
<path d="M1254.65 219.477L1254.83 221.47C1402.5 210.056 1513.1 186.84 1586.8 166.464C1623.65 156.277 1651.28 146.8 1669.71 139.864C1678.92 136.396 1685.84 133.563 1690.45 131.594C1692.76 130.61 1694.49 129.842 1695.65 129.318C1696.23 129.056 1696.67 128.855 1696.96 128.72C1697.11 128.652 1697.22 128.6 1697.29 128.565C1697.33 128.547 1697.36 128.534 1697.38 128.524C1697.39 128.52 1697.4 128.516 1697.4 128.514C1697.4 128.513 1697.41 128.511 1697.41 128.511C1697.41 128.51 1697.41 128.509 1696.53 126.704C1695.66 124.899 1695.66 124.899 1695.66 124.899C1695.66 124.9 1695.66 124.9 1695.65 124.901C1695.65 124.903 1695.64 124.906 1695.64 124.91C1695.62 124.917 1695.59 124.929 1695.56 124.946C1695.49 124.978 1695.39 125.027 1695.25 125.092C1694.97 125.222 1694.54 125.417 1693.98 125.673C1692.84 126.186 1691.13 126.943 1688.85 127.916C1684.29 129.863 1677.42 132.674 1668.27 136.122C1649.95 143.017 1622.43 152.457 1585.7 162.611C1512.23 182.921 1401.89 206.091 1254.48 217.485L1254.65 219.477ZM16.0753 242.264C16.8132 244.129 16.8137 244.129 16.815 244.128C16.8165 244.128 16.8185 244.127 16.8214 244.126C16.8272 244.123 16.8361 244.12 16.848 244.115C16.8718 244.106 16.9077 244.092 16.9558 244.074C17.0519 244.037 17.1963 243.982 17.3884 243.908C17.7726 243.762 18.3474 243.543 19.1071 243.257C20.6265 242.684 22.8856 241.841 25.8395 240.759C31.7473 238.595 40.4337 235.478 51.5386 231.668C73.7487 224.048 105.63 213.657 144.302 202.579C221.654 180.419 326.127 155.524 434.682 144.542L434.461 142.554L434.241 140.565C325.368 151.579 220.648 176.539 143.165 198.736C104.418 209.836 72.4705 220.248 50.2062 227.887C39.0738 231.706 30.3617 234.832 24.4302 237.005C21.4645 238.091 19.1938 238.939 17.6633 239.515C16.8981 239.804 16.3179 240.024 15.9283 240.173C15.7335 240.247 15.5864 240.304 15.4877 240.342C15.4383 240.361 15.401 240.375 15.3759 240.385C15.3634 240.389 15.3539 240.393 15.3475 240.396C15.3442 240.397 15.3417 240.398 15.3401 240.399C15.3383 240.399 15.3373 240.4 16.0753 242.264ZM434.461 142.554L434.682 144.542C543.052 133.579 674 158.436 815.106 183.288C956.068 208.116 1107 232.896 1254.83 221.47L1254.65 219.477L1254.48 217.485C1107.22 228.866 956.771 204.187 815.765 179.352C674.903 154.542 543.298 129.533 434.241 140.565L434.461 142.554Z" fill="#3B82F6"/>
<path d="M1266.85 205.453L1267.03 207.446C1414.7 196.032 1525.3 172.815 1599 152.44C1635.85 142.253 1663.48 132.775 1681.91 125.839C1691.12 122.371 1698.03 119.539 1702.65 117.57C1704.96 116.586 1706.69 115.817 1707.85 115.294C1708.43 115.032 1708.87 114.831 1709.16 114.695C1709.31 114.627 1709.42 114.575 1709.49 114.54C1709.53 114.523 1709.56 114.509 1709.58 114.5C1709.59 114.495 1709.6 114.492 1709.6 114.489C1709.6 114.488 1709.61 114.487 1709.61 114.486C1709.61 114.486 1709.61 114.485 1708.73 112.68C1707.86 110.875 1707.86 110.875 1707.86 110.875C1707.86 110.875 1707.86 110.876 1707.85 110.877C1707.85 110.879 1707.84 110.881 1707.84 110.885C1707.82 110.893 1707.79 110.905 1707.76 110.921C1707.69 110.953 1707.59 111.002 1707.45 111.067C1707.17 111.198 1706.74 111.393 1706.17 111.649C1705.04 112.161 1703.33 112.918 1701.05 113.892C1696.48 115.838 1689.62 118.65 1680.46 122.097C1662.15 128.993 1634.63 138.432 1597.9 148.587C1524.43 168.896 1414.09 192.067 1266.68 203.46L1266.85 205.453ZM28.2745 228.24C29.0124 230.104 29.013 230.104 29.0143 230.104C29.0157 230.103 29.0178 230.102 29.0207 230.101C29.0265 230.099 29.0353 230.096 29.0472 230.091C29.071 230.082 29.107 230.068 29.155 230.05C29.2511 230.013 29.3956 229.957 29.5877 229.884C29.9718 229.737 30.5466 229.519 31.3063 229.232C32.8257 228.66 35.0849 227.817 38.0387 226.735C43.9465 224.571 52.6329 221.454 63.7378 217.644C85.9479 210.024 117.83 199.633 156.501 188.554C233.853 166.395 338.326 141.499 446.881 130.518L446.661 128.529L446.44 126.541C337.568 137.555 232.847 162.514 155.364 184.711C116.617 195.811 84.6697 206.224 62.4054 213.862C51.2731 217.682 42.5609 220.808 36.6294 222.98C33.6637 224.067 31.393 224.914 29.8625 225.491C29.0973 225.779 28.5171 226 28.1275 226.149C27.9328 226.223 27.7856 226.279 27.6869 226.317C27.6375 226.336 27.6003 226.351 27.5752 226.36C27.5626 226.365 27.5531 226.369 27.5467 226.371C27.5434 226.372 27.5409 226.373 27.5393 226.374C27.5375 226.375 27.5365 226.375 28.2745 228.24ZM446.661 128.529L446.881 130.518C555.252 119.555 686.199 144.411 827.305 169.264C968.268 194.091 1119.2 218.872 1267.03 207.446L1266.85 205.453L1266.68 203.46C1119.42 214.842 968.97 190.163 827.964 165.328C687.102 140.518 555.497 115.509 446.44 126.541L446.661 128.529Z" fill="#3B82F6"/>
</g>
</svg>
